<svg xmlns="http://www.w3.org/2000/svg" viewBox="0 0 665 340" width="665" height="340"><g transform="translate(281.42 0) scale(0.60)"><path d="M 22 224 L 22 96 A 63 63 0 0 1 148 96 L 148 224 Z" fill="none" stroke="#C9A662" stroke-width="2.6" stroke-linejoin="round"/><path d="M 40 178 L 66 134 L 84 156 L 106 124 L 132 178" fill="none" stroke="#C9A662" stroke-width="2.6" stroke-linecap="round" stroke-linejoin="round"/><path d="M 42 192 L 130 192" stroke="#C9A662" stroke-width="2.6" stroke-linecap="round"/><path d="M 56 203 L 116 203" stroke="#C9A662" stroke-width="2.6" stroke-linecap="round"/><path d="M 70 214 L 102 214" stroke="#C9A662" stroke-width="2.6" stroke-linecap="round"/></g><g transform="translate(0.00 0)"><path d="M154.200439453125 513.000244140625Q154.200439453125 472.80029296875 174.25042724609375 443.75030517578125Q194.3004150390625 414.7003173828125 226.35040283203125 392.25030517578125Q258.400390625 369.80029296875 293.95037841796875 347.9002685546875Q331.400390625 325.55023193359375 365.6253967285156 300.7001953125Q399.85040283203125 275.85015869140625 422.35040283203125 242.45013427734375Q444.85040283203125 209.05010986328125 444.85040283203125 161.05010986328125Q444.85040283203125 111.9000244140625 419.65032958984375 72.72500610351562Q394.45025634765625 33.54998779296875 347.8752136230469 10.774993896484375Q301.3001708984375 -12 236.000244140625 -12Q210.400146484375 -12 183.95001220703125 -7.64996337890625Q157.4998779296875 -3.2999267578125 133.1998291015625 4.875091552734375Q108.8997802734375 13.05010986328125 89.199951171875 24.7000732421875Q84.64996337890625 27.7000732421875 82.47494506835938 31.75006103515625Q80.2999267578125 35.800048828125 79.74993896484375 43.7000732421875L70.15008544921875 186.75042724609375Q69.15008544921875 191.75042724609375 74.65008544921875 192.25042724609375Q80.15008544921875 192.75042724609375 81.15008544921875 188.75042724609375Q90.1002197265625 158.3004150390625 104.80029296875 126.27536010742188Q119.5003662109375 94.25030517578125 140.900390625 67.45025634765625Q162.3004150390625 40.65020751953125 191.67538452148438 23.8001708984375Q221.05035400390625 6.95013427734375 259.80029296875 6.95013427734375Q287.2001953125 6.95013427734375 312.60009765625 16.875091552734375Q338 26.800048828125 354.24993896484375 50.54998779296875Q370.4998779296875 74.2999267578125 370.4998779296875 115.6998291015625Q370.4998779296875 163.7998046875 349.2248840332031 196.74981689453125Q327.94989013671875 229.6998291015625 294.94989013671875 254.099853515625Q261.94989013671875 278.4998779296875 225.39990234375 300.39990234375Q190.39990234375 322.2999267578125 157.84991455078125 345.9749450683594Q125.2999267578125 369.64996337890625 105.02493286132812 401.14996337890625Q84.74993896484375 432.64996337890625 84.74993896484375 478.2999267578125Q84.74993896484375 532.0999755859375 113.22500610351562 567.0499877929688Q141.7000732421875 602 186.35015869140625 619.0Q231.000244140625 636 278.25030517578125 636Q308.75042724609375 636 340.6255187988281 630.0499877929688Q372.5006103515625 624.0999755859375 399.00048828125 612.9000244140625Q407.9005126953125 609.4500122070312 410.95050048828125 604.7250061035156Q414.00048828125 600 414.00048828125 594.5499877929688L418.95037841796875 470.0994873046875Q418.95037841796875 466.54949951171875 413.900390625 465.8744812011719Q408.85040283203125 465.199462890625 407.400390625 468.74945068359375Q403.600341796875 486.24932861328125 393.9753112792969 511.54937744140625Q384.35028076171875 536.8494262695312 367.1752624511719 561.3495483398438Q350.000244140625 585.8496704101562 323.3752136230469 602.3997802734375Q296.75018310546875 618.9498901367188 258.95013427734375 618.9498901367188Q224.05035400390625 618.9498901367188 200.8004150390625 604.5499877929688Q177.55047607421875 590.1500854492188 165.87545776367188 566.5251770019531Q154.200439453125 542.9002685546875 154.200439453125 513.000244140625Z" transform="translate(0.00 248.00) scale(0.06800 -0.06800)" fill="#F8F5EF"/><path d="M207.75042724609375 81Q207.75042724609375 52 213.3004150390625 37.0Q218.85040283203125 22 236.32534790039062 17.0Q253.80029296875 12 288.65020751953125 12Q291.1002197265625 12 291.1002197265625 6.0Q291.1002197265625 0 288.65020751953125 0Q263.6347953600761 0 233.4078390007345 1.0Q203.18088264139288 2 166.7000732421875 2Q132.1638246733567 2 101.2905115587958 1.0Q70.41719844423491 0 45.2999267578125 0Q42.74993896484375 0 42.74993896484375 6.0Q42.74993896484375 12 45.479931640625 12Q80.0598388671875 12 97.80479125976562 17.0Q115.54974365234375 22 121.5997314453125 37.0Q127.64971923828125 52 127.64971923828125 81V544Q127.64971923828125 573 121.70223422580295 587.5Q115.75474921332466 602 97.91229417588977 607.5Q80.06983913845487 613 45.2999267578125 613Q42.74993896484375 613 42.74993896484375 619.0Q42.74993896484375 625 45.2999267578125 625Q70.41719844423491 625 101.2905115587958 623.5Q132.1638246733567 622 166.7000732421875 622Q203.18088264139288 622 233.92899342072315 623.5Q264.6771042000534 625 288.65020751953125 625Q291.1002197265625 625 291.1002197265625 619.0Q291.1002197265625 613 288.65020751953125 613Q254.10872830165906 613 236.83798869272294 607.0Q219.56724908378686 601 213.6588381649403 586.0Q207.75042724609375 571 207.75042724609375 542Z" transform="translate(42.77 248.00) scale(0.06800 -0.06800)" fill="#F8F5EF"/><path d="M122.05010986328125 114.35028076171875V602L147.65020751953125 600V114.35028076171875Q147.65020751953125 62.45025634765625 166.9002685546875 37.225128173828125Q186.15032958984375 12 226.80029296875 12Q229.35028076171875 12 229.35028076171875 6.0Q229.35028076171875 0 226.80029296875 0Q206.45025634765625 0 184.6002197265625 1.0Q162.75018310546875 2 136.400146484375 2Q109.7000732421875 2 84.77499389648438 1.0Q59.84991455078125 0 38.04986572265625 0Q35.599853515625 0 35.599853515625 6.0Q35.599853515625 12 38.04986572265625 12Q82.04986572265625 12 102.04998779296875 37.225128173828125Q122.05010986328125 62.45025634765625 122.05010986328125 114.35028076171875ZM628.2001953125 -12.800048828125Q628.2001953125 -15.25006103515625 623.4252014160156 -15.75006103515625Q618.6502075195312 -16.25006103515625 616.6502075195312 -15.25006103515625L146.19970703125 543Q111.2996826171875 584 85.47470092773438 598.5Q59.64971923828125 613 35.19970703125 613Q32.64971923828125 613 32.64971923828125 619.0Q32.64971923828125 625 35.19970703125 625Q53.54974365234375 625 72.8997802734375 624.0Q92.24981689453125 623 108.04986572265625 623Q131.95013427734375 623 151.87533569335938 624.0Q171.800537109375 625 182.3006591796875 625Q195.3006591796875 625 200.97567749023438 613.5Q206.65069580078125 602 230.1007080078125 573L620.2001953125 103.25103759765625ZM628.2001953125 509.64971923828125V-12.800048828125L603.0501098632812 17.74993896484375V509.64971923828125Q603.0501098632812 561.5497436523438 584.3500366210938 587.2748718261719Q565.6499633789062 613 525 613Q523 613 523.0 619.0Q523 625 525 625Q545.9000244140625 625 567.7500610351562 623.5Q589.60009765625 622 615.9501342773438 622Q640.7501831054688 622 665.1002197265625 623.5Q689.4502563476562 625 709.80029296875 625Q712.3502807617188 625 712.3502807617188 619.0Q712.3502807617188 613 709.80029296875 613Q668.1503295898438 613 648.1752624511719 587.2748718261719Q628.2001953125 561.5497436523438 628.2001953125 509.64971923828125Z" transform="translate(74.39 248.00) scale(0.06800 -0.06800)" fill="#F8F5EF"/><path d="M412.2001953125 -12Q326.400146484375 -12 258.7751159667969 13.54998779296875Q191.15008544921875 39.0999755859375 144.52505493164062 84.199951171875Q97.9000244140625 129.2999267578125 73.45001220703125 188.12490844726562Q49 246.94989013671875 49 313.4998779296875Q49 387.599853515625 77.72500610351562 446.7748718261719Q106.45001220703125 505.94989013671875 158.07504272460938 548.3499145507812Q209.7000732421875 590.7499389648438 278.7751159667969 613.3749694824219Q347.85015869140625 636 428.55023193359375 636Q480.5001220703125 636 527.400146484375 626.800048828125Q574.3001708984375 617.60009765625 604.8501586914062 600.7501831054688Q613.6502075195312 596.7501831054688 614.8752136230469 593.9751892089844Q616.1002197265625 591.2001953125 617.1002197265625 578.3001708984375L629.5502319335938 454.14984130859375Q629.5502319335938 451.14984130859375 624.5502319335938 450.14984130859375Q619.5502319335938 449.14984130859375 617.5502319335938 452.599853515625Q608.3502807617188 483.6995849609375 591.4002685546875 513.299560546875Q574.4502563476562 542.8995361328125 548.3752136230469 566.2746276855469Q522.3001708984375 589.6497192382812 486.60009765625 603.9748229980469Q450.9000244140625 618.2999267578125 403.74993896484375 618.2999267578125Q329.85015869140625 618.2999267578125 269.9253234863281 583.5249328613281Q210.00048828125 548.7499389648438 174.87557983398438 484.199951171875Q139.75067138671875 419.64996337890625 139.75067138671875 330.0999755859375Q139.75067138671875 265.7998046875 159.15069580078125 207.07479858398438Q178.55072021484375 148.34979248046875 216.6007080078125 102.37484741210938Q254.65069580078125 56.39990234375 310.15057373046875 29.874969482421875Q365.65045166015625 3.35003662109375 438.3001708984375 3.35003662109375Q482.9000244140625 3.35003662109375 509.4749450683594 14.54998779296875Q536.0498657226562 25.74993896484375 547.9248352050781 52.2999267578125Q559.7998046875 78.84991455078125 559.7998046875 125.45001220703125Q559.7998046875 173.45001220703125 553.7498168945312 195.95001220703125Q547.6998291015625 218.45001220703125 524.7748718261719 225.45001220703125Q501.84991455078125 232.45001220703125 450.45001220703125 232.45001220703125Q444.45001220703125 232.45001220703125 444.45001220703125 240.45001220703125Q444.45001220703125 248.45001220703125 449.45001220703125 248.45001220703125Q515.0501098632812 244.45001220703125 568.3001708984375 243.95001220703125Q621.5502319335938 243.45001220703125 680.2503051757812 246.45001220703125Q684.80029296875 246.45001220703125 685.0252990722656 239.45001220703125Q685.2503051757812 232.45001220703125 680.2503051757812 232.45001220703125Q658.8504028320312 233.45001220703125 648.9254455566406 225.95001220703125Q639.00048828125 218.45001220703125 636.4505004882812 193.45001220703125Q633.9005126953125 168.45001220703125 633.9005126953125 115.45001220703125Q633.9005126953125 82.45001220703125 635.9005126953125 66.45001220703125Q637.9005126953125 50.45001220703125 639.4005126953125 42.95001220703125Q640.9005126953125 35.45001220703125 640.9005126953125 27.45001220703125Q640.9005126953125 21.45001220703125 638.9005126953125 19.45001220703125Q636.9005126953125 17.45001220703125 629.9005126953125 15.45001220703125Q577.6504516601562 4 520.4503784179688 -4.0Q463.25030517578125 -12 412.2001953125 -12Z" transform="translate(132.87 248.00) scale(0.06800 -0.06800)" fill="#F8F5EF"/><path d="M571.5499877929688 509.64971923828125Q571.5499877929688 559.8997802734375 549.2499389648438 586.4498901367188Q526.9498901367188 613 482.94989013671875 613Q480.39990234375 613 480.39990234375 619.0Q480.39990234375 625 482.94989013671875 625Q506.2999267578125 625 531.1499633789062 623.5Q556 622 585.3500366210938 622Q610.1500854492188 622 634.7751159667969 623.5Q659.400146484375 625 679.7501831054688 625Q681.7501831054688 625 681.7501831054688 619.0Q681.7501831054688 613 679.7501831054688 613Q639.7501831054688 613 619.3501586914062 586.4498901367188Q598.9501342773438 559.8997802734375 598.9501342773438 509.64971923828125V227.24981689453125Q598.9501342773438 151.84991455078125 569.0501098632812 97.97494506835938Q539.1500854492188 44.0999755859375 485.0750427246094 15.324981689453125Q431 -13.45001220703125 358.74993896484375 -13.45001220703125Q285.199951171875 -13.45001220703125 229.07492065429688 15.374969482421875Q172.94989013671875 44.199951171875 141.82485961914062 97.24993896484375Q110.6998291015625 150.2999267578125 110.6998291015625 223.199951171875V544Q110.6998291015625 573 104.87484741210938 587.5Q99.04986572265625 602 81.62490844726562 607.5Q64.199951171875 613 29.800048828125 613Q27.35003662109375 613 27.35003662109375 619.0Q27.35003662109375 625 29.800048828125 625Q54.7000732421875 625 85.05010986328125 623.5Q115.400146484375 622 149.75018310546875 622Q185.55023193359375 622 216.17526245117188 623.5Q246.80029296875 625 270.15032958984375 625Q273.15032958984375 625 273.15032958984375 619.0Q273.15032958984375 613 270.15032958984375 613Q235.75042724609375 613 218.55047607421875 607.0Q201.35052490234375 601 195.57553100585938 586.0Q189.800537109375 571 189.800537109375 542V258.199951171875Q189.800537109375 137.94989013671875 242.1004638671875 78.54998779296875Q294.400390625 19.15008544921875 385.75018310546875 19.15008544921875Q473.7000732421875 19.15008544921875 522.6250305175781 73.77499389648438Q571.5499877929688 128.39990234375 571.5499877929688 226.24981689453125Z" transform="translate(190.60 248.00) scale(0.06800 -0.06800)" fill="#F8F5EF"/><path d="M193.75042724609375 543V85Q193.75042724609375 58.575042724609375 199.12539672851562 45.36256408691406Q204.5003662109375 32.15008544921875 220.2633056640625 27.60009765625Q236.0262451171875 23.05010986328125 266.7000732421875 23.05010986328125H352.39892578125Q416.64923095703125 23.05010986328125 457.6995849609375 61.2001953125Q498.74993896484375 99.35028076171875 511.7000732421875 162.200439453125Q512.1500854492188 165.200439453125 517.4250793457031 164.47543334960938Q522.7000732421875 163.75042724609375 522.7000732421875 160.75042724609375Q519.7000732421875 131.600341796875 516.7000732421875 90.67810645470252Q513.7000732421875 49.755871112530045 513.7000732421875 15Q513.7000732421875 0 498.52954230057566 0H33.2999267578125Q31.2999267578125 0 31.2999267578125 6.0Q31.2999267578125 12 33.2999267578125 12Q68.03354601913624 12 85.40035564979812 17.0Q102.76716528045998 22 108.70844225937061 37.0Q114.64971923828125 52 114.64971923828125 81V544Q114.64971923828125 573 108.70844225937061 587.5Q102.76716528045998 602 85.40035564979812 607.5Q68.03354601913624 613 33.2999267578125 613Q31.2999267578125 613 31.2999267578125 619.0Q31.2999267578125 625 33.2999267578125 625Q57.2999267578125 625 88.49917285156249 623.5Q119.6984189453125 622 153.5416689453125 622Q189.5001220703125 622 220.13338451850706 623.5Q250.76664696670161 625 274.65020751953125 625Q277.1002197265625 625 277.1002197265625 619.0Q277.1002197265625 613 274.65020751953125 613Q240.10872830165906 613 222.83798869272294 607.5Q205.56724908378686 602 199.6588381649403 587.0Q193.75042724609375 572 193.75042724609375 543Z" transform="translate(247.04 248.00) scale(0.06800 -0.06800)" fill="#F8F5EF"/><path d="M186.94964599609375 260.8992919921875 198.64971923828125 283.3994140625H470.7000732421875L477.7000732421875 260.8992919921875ZM704.3502807617188 12Q708.80029296875 12 708.80029296875 6.0Q708.80029296875 0 704.3502807617188 0Q675.4502563476562 0 644.6002197265625 2.0Q613.7501831054688 4 585.400146484375 4Q553.0501098632812 4 529.4250793457031 2.0Q505.800048828125 0 477 0Q473 0 473.0 6.0Q473 12 477 12Q526.2498168945312 12 537.1497192382812 27.675018310546875Q548.0496215820312 43.35003662109375 526.3495483398438 88.5001220703125L310.6998291015625 536.2490844726562L343.2001953125 584.2999267578125L147.5001220703125 131.55023193359375Q121.60009765625 71.000244140625 144.85015869140625 41.5001220703125Q168.1002197265625 12 230.7000732421875 12Q235.7000732421875 12 235.7000732421875 6.0Q235.7000732421875 0 230.7000732421875 0Q200.7000732421875 0 175.7000732421875 2.0Q150.7000732421875 4 112.7000732421875 4Q75.9000244140625 4 53.5 2.0Q31.0999755859375 0 -0.7000732421875 0Q-4.7000732421875 0 -4.7000732421875 6.0Q-4.7000732421875 12 -0.7000732421875 12Q26.2999267578125 12 46.074920654296875 22.675018310546875Q65.84991455078125 33.35003662109375 84.24993896484375 61.375091552734375Q102.64996337890625 89.400146484375 124.9000244140625 141.000244140625L337.5001220703125 632.2999267578125Q339.05010986328125 635.2999267578125 345.1251525878906 635.5249328613281Q351.2001953125 635.7499389648438 352.2001953125 632.2999267578125L592.3004150390625 137Q615.7504272460938 88.35003662109375 633.5254211425781 60.85003662109375Q651.3004150390625 33.35003662109375 668.1753845214844 22.675018310546875Q685.0503540039062 12 704.3502807617188 12Z" transform="translate(292.40 248.00) scale(0.06800 -0.06800)" fill="#F8F5EF"/><path d="M546.4996337890625 0Q530.399658203125 0 493.8747253417969 38.324981689453125Q457.34979248046875 76.64996337890625 405.94989013671875 148.47494506835938Q354.54998779296875 220.2999267578125 290.60009765625 319.2999267578125L358.400634765625 340.15008544921875Q441.7005615234375 219.15008544921875 500.1255187988281 146.97506713867188Q558.5504760742188 74.800048828125 603.6504516601562 43.4000244140625Q648.7504272460938 12 690.400390625 12Q692.9503784179688 12 692.9503784179688 6.0Q692.9503784179688 0 690.400390625 0Q634.1500854492188 0 598.6748962402344 0.0Q563.19970703125 0 546.4996337890625 0ZM306.2001953125 628Q389.95037841796875 628 434.50048828125 592.5750427246094Q479.05059814453125 557.1500854492188 479.05059814453125 497.7000732421875Q479.05059814453125 442 447.15057373046875 397.8749694824219Q415.25054931640625 353.74993896484375 363.75054931640625 328.74993896484375Q312.25054931640625 303.74993896484375 252.5006103515625 303.74993896484375Q241.25054931640625 303.74993896484375 228.12551879882812 304.2999267578125Q215.00048828125 304.84991455078125 204.1004638671875 305.84991455078125V81Q204.1004638671875 52 209.65045166015625 37.0Q215.200439453125 22 232.67538452148438 17.0Q250.15032958984375 12 285.000244140625 12Q287.55023193359375 12 287.55023193359375 6.0Q287.55023193359375 0 285.000244140625 0Q260.1002197265625 0 230.02517700195312 1.0Q199.95013427734375 2 163.60009765625 2Q129.800048828125 2 98.67501831054688 1.0Q67.54998779296875 0 42.64996337890625 0Q40.199951171875 0 40.199951171875 6.0Q40.199951171875 12 42.64996337890625 12Q77.4998779296875 12 94.97482299804688 17.0Q112.44976806640625 22 118.77474975585938 37.0Q125.0997314453125 52 125.0997314453125 81V544Q125.0997314453125 573 119.27474975585938 587.5Q113.44976806640625 602 96.24981689453125 607.5Q79.04986572265625 613 44.199951171875 613Q41.64996337890625 613 41.64996337890625 619.0Q41.64996337890625 625 44.199951171875 625Q68.54998779296875 625 99.17501831054688 623.5Q129.800048828125 622 163.60009765625 622Q195.5001220703125 622 235.82510375976562 625.0Q276.15008544921875 628 306.2001953125 628ZM396.94989013671875 465.74993896484375Q396.94989013671875 522 381.9249572753906 553.5499877929688Q366.9000244140625 585.0999755859375 339.5751647949219 598.2499389648438Q312.25030517578125 611.39990234375 274.800537109375 611.39990234375Q237.00048828125 611.39990234375 220.55047607421875 597.4998779296875Q204.1004638671875 583.599853515625 204.1004638671875 542V331.0999755859375Q218.1004638671875 329.64996337890625 234.37545776367188 328.64996337890625Q250.65045166015625 327.64996337890625 263.200439453125 327.64996337890625Q337.05010986328125 327.64996337890625 367.0 362.0749206542969Q396.94989013671875 396.4998779296875 396.94989013671875 465.74993896484375Z" transform="translate(349.25 248.00) scale(0.06800 -0.06800)" fill="#F8F5EF"/><path d="M199.5003662109375 85Q199.5003662109375 55 207.100341796875 39.5Q214.7003173828125 24 239.000244140625 18.0Q263.3001708984375 12 311.45001220703125 12Q314.45001220703125 12 314.45001220703125 6.0Q314.45001220703125 0 311.45001220703125 0Q279.45001220703125 0 241.95001220703125 1.0Q204.45001220703125 2 160.45001220703125 2Q126.64996337890625 2 95.52493286132812 1.0Q64.39990234375 0 39.4998779296875 0Q37.04986572265625 0 37.04986572265625 6.0Q37.04986572265625 12 39.4998779296875 12Q74.34979248046875 12 91.54974365234375 17.0Q108.74969482421875 22 114.57467651367188 37.0Q120.399658203125 52 120.399658203125 81V544Q120.399658203125 573 114.57467651367188 587.5Q108.74969482421875 602 91.54974365234375 607.5Q74.34979248046875 613 39.4998779296875 613Q37.04986572265625 613 37.04986572265625 619.0Q37.04986572265625 625 39.4998779296875 625Q64.39990234375 625 95.02493286132812 623.5Q125.64996337890625 622 159.45001220703125 622Q184.54998779296875 622 222.45001220703125 625.0Q260.35003662109375 628 297.64996337890625 628Q356.25006103515625 628 402.8251037597656 611.2250061035156Q449.400146484375 594.4500122070312 477.0251770019531 558.4500122070312Q504.65020751953125 522.4500122070312 505.55023193359375 464Q506.45025634765625 411.9000244140625 487.1252746582031 373.9000244140625Q467.80029296875 335.9000244140625 435.30029296875 311.1750183105469Q402.80029296875 286.45001220703125 363.5752868652344 274.2250061035156Q324.35028076171875 262 285.9002685546875 262Q274.25030517578125 262 261.75030517578125 263.0Q249.25030517578125 264 237.80029296875 267Q234.25030517578125 268 235.52529907226562 274.5Q236.80029296875 281 240.25030517578125 280Q248.80029296875 278 258.5252990722656 277.0Q268.25030517578125 276 275.35028076171875 276Q312.60009765625 276 344.84991455078125 294.0Q377.0997314453125 312 397.04962158203125 349.2749938964844Q416.99951171875 386.54998779296875 416.99951171875 442.64996337890625Q416.99951171875 496.74993896484375 398.4245910644531 534.0749206542969Q379.84967041015625 571.39990234375 346.999755859375 591.1748962402344Q314.14984130859375 610.9498901367188 270.599853515625 610.9498901367188Q242.7000732421875 610.9498901367188 227.25018310546875 606.7748718261719Q211.80029296875 602.599853515625 205.65032958984375 588.0498657226562Q199.5003662109375 573.4998779296875 199.5003662109375 542Z" transform="translate(429.15 248.00) scale(0.06800 -0.06800)" fill="#F8F5EF"/><path d="M546.4996337890625 0Q530.399658203125 0 493.8747253417969 38.324981689453125Q457.34979248046875 76.64996337890625 405.94989013671875 148.47494506835938Q354.54998779296875 220.2999267578125 290.60009765625 319.2999267578125L358.400634765625 340.15008544921875Q441.7005615234375 219.15008544921875 500.1255187988281 146.97506713867188Q558.5504760742188 74.800048828125 603.6504516601562 43.4000244140625Q648.7504272460938 12 690.400390625 12Q692.9503784179688 12 692.9503784179688 6.0Q692.9503784179688 0 690.400390625 0Q634.1500854492188 0 598.6748962402344 0.0Q563.19970703125 0 546.4996337890625 0ZM306.2001953125 628Q389.95037841796875 628 434.50048828125 592.5750427246094Q479.05059814453125 557.1500854492188 479.05059814453125 497.7000732421875Q479.05059814453125 442 447.15057373046875 397.8749694824219Q415.25054931640625 353.74993896484375 363.75054931640625 328.74993896484375Q312.25054931640625 303.74993896484375 252.5006103515625 303.74993896484375Q241.25054931640625 303.74993896484375 228.12551879882812 304.2999267578125Q215.00048828125 304.84991455078125 204.1004638671875 305.84991455078125V81Q204.1004638671875 52 209.65045166015625 37.0Q215.200439453125 22 232.67538452148438 17.0Q250.15032958984375 12 285.000244140625 12Q287.55023193359375 12 287.55023193359375 6.0Q287.55023193359375 0 285.000244140625 0Q260.1002197265625 0 230.02517700195312 1.0Q199.95013427734375 2 163.60009765625 2Q129.800048828125 2 98.67501831054688 1.0Q67.54998779296875 0 42.64996337890625 0Q40.199951171875 0 40.199951171875 6.0Q40.199951171875 12 42.64996337890625 12Q77.4998779296875 12 94.97482299804688 17.0Q112.44976806640625 22 118.77474975585938 37.0Q125.0997314453125 52 125.0997314453125 81V544Q125.0997314453125 573 119.27474975585938 587.5Q113.44976806640625 602 96.24981689453125 607.5Q79.04986572265625 613 44.199951171875 613Q41.64996337890625 613 41.64996337890625 619.0Q41.64996337890625 625 44.199951171875 625Q68.54998779296875 625 99.17501831054688 623.5Q129.800048828125 622 163.60009765625 622Q195.5001220703125 622 235.82510375976562 625.0Q276.15008544921875 628 306.2001953125 628ZM396.94989013671875 465.74993896484375Q396.94989013671875 522 381.9249572753906 553.5499877929688Q366.9000244140625 585.0999755859375 339.5751647949219 598.2499389648438Q312.25030517578125 611.39990234375 274.800537109375 611.39990234375Q237.00048828125 611.39990234375 220.55047607421875 597.4998779296875Q204.1004638671875 583.599853515625 204.1004638671875 542V331.0999755859375Q218.1004638671875 329.64996337890625 234.37545776367188 328.64996337890625Q250.65045166015625 327.64996337890625 263.200439453125 327.64996337890625Q337.05010986328125 327.64996337890625 367.0 362.0749206542969Q396.94989013671875 396.4998779296875 396.94989013671875 465.74993896484375Z" transform="translate(475.12 248.00) scale(0.06800 -0.06800)" fill="#F8F5EF"/><path d="M207.75042724609375 81Q207.75042724609375 52 213.3004150390625 37.0Q218.85040283203125 22 236.32534790039062 17.0Q253.80029296875 12 288.65020751953125 12Q291.1002197265625 12 291.1002197265625 6.0Q291.1002197265625 0 288.65020751953125 0Q263.6347953600761 0 233.4078390007345 1.0Q203.18088264139288 2 166.7000732421875 2Q132.1638246733567 2 101.2905115587958 1.0Q70.41719844423491 0 45.2999267578125 0Q42.74993896484375 0 42.74993896484375 6.0Q42.74993896484375 12 45.479931640625 12Q80.0598388671875 12 97.80479125976562 17.0Q115.54974365234375 22 121.5997314453125 37.0Q127.64971923828125 52 127.64971923828125 81V544Q127.64971923828125 573 121.70223422580295 587.5Q115.75474921332466 602 97.91229417588977 607.5Q80.06983913845487 613 45.2999267578125 613Q42.74993896484375 613 42.74993896484375 619.0Q42.74993896484375 625 45.2999267578125 625Q70.41719844423491 625 101.2905115587958 623.5Q132.1638246733567 622 166.7000732421875 622Q203.18088264139288 622 233.92899342072315 623.5Q264.6771042000534 625 288.65020751953125 625Q291.1002197265625 625 291.1002197265625 619.0Q291.1002197265625 613 288.65020751953125 613Q254.10872830165906 613 236.83798869272294 607.0Q219.56724908378686 601 213.6588381649403 586.0Q207.75042724609375 571 207.75042724609375 542Z" transform="translate(530.26 248.00) scale(0.06800 -0.06800)" fill="#F8F5EF"/><path d="M118.64996337890625 114.35028076171875 128.64996337890625 602 153.800048828125 600 143.9000244140625 114.35028076171875Q142.9000244140625 62.45025634765625 162.65008544921875 37.225128173828125Q182.400146484375 12 228.35003662109375 12Q230.800048828125 12 230.800048828125 6.0Q230.800048828125 0 228.35003662109375 0Q206.35003662109375 0 183.07504272460938 1.0Q159.800048828125 2 131.35003662109375 2Q103.74993896484375 2 79.94989013671875 1.0Q56.14984130859375 0 35.24981689453125 0Q32.7998046875 0 32.7998046875 6.0Q32.7998046875 12 35.24981689453125 12Q76.7998046875 12 97.22488403320312 37.225128173828125Q117.64996337890625 62.45025634765625 118.64996337890625 114.35028076171875ZM818.7003173828125 12Q821.2503051757812 12 821.2503051757812 6.0Q821.2503051757812 0 818.7003173828125 0Q793.80029296875 0 762.7252502441406 1.0Q731.6502075195312 2 697.3001708984375 2Q663.60009765625 2 634.9000244140625 1.0Q606.199951171875 0 582.9498901367188 0Q580.4998779296875 0 580.4998779296875 6.0Q580.4998779296875 12 582.9498901367188 12Q631.599853515625 12 645.6498413085938 25.0Q659.6998291015625 38 657.2498168945312 81L636.999755859375 551.9494018554688L675.9000244140625 608.2999267578125L417.05010986328125 7Q416.05010986328125 3 409.2751159667969 3.0Q402.5001220703125 3 400.5001220703125 7L139.84967041015625 542Q105.14959716796875 613 42.24981689453125 613Q39.7998046875 613 39.7998046875 619.0Q39.7998046875 625 42.24981689453125 625Q59.94989013671875 625 79.64996337890625 624.0Q99.35003662109375 623 112.60009765625 623Q132.000244140625 623 147.37533569335938 624.0Q162.75042724609375 625 171.00048828125 625Q185.00048828125 625 192.77548217773438 615.5499877929688Q200.55047607421875 606.0999755859375 217.00048828125 573L443.75042724609375 111.75091552734375L406.95013427734375 48.15032958984375L647.5499877929688 600Q653 612.3500366210938 660.5999755859375 618.6750183105469Q668.199951171875 625 677.5499877929688 625Q684.800048828125 625 695.2500610351562 624.0Q705.7000732421875 623 719.60009765625 623Q748.3001708984375 623 767.2252502441406 624.0Q786.1503295898438 625 805.9503784179688 625Q808.400390625 625 808.400390625 619.0Q808.400390625 613 805.9503784179688 613Q758.3004150390625 613 735.9754333496094 597.5749206542969Q713.6504516601562 582.1498413085938 715.1004638671875 541.0498657226562L736.3505249023438 81Q737.800537109375 52 743.8505249023438 37.0Q749.9005126953125 22 767.1004638671875 17.0Q784.3004150390625 12 818.7003173828125 12Z" transform="translate(561.88 248.00) scale(0.06800 -0.06800)" fill="#F8F5EF"/><path d="M468.7003173828125 0H42.64996337890625Q40.199951171875 0 40.199951171875 6.0Q40.199951171875 12 42.64996337890625 12Q77.4998779296875 12 94.6998291015625 17.0Q111.8997802734375 22 117.72476196289062 37.0Q123.54974365234375 52 123.54974365234375 81V544Q123.54974365234375 573 117.72476196289062 587.5Q111.8997802734375 602 94.6998291015625 607.5Q77.4998779296875 613 42.64996337890625 613Q40.199951171875 613 40.199951171875 619.0Q40.199951171875 625 42.64996337890625 625H451.25030517578125Q460.7003173828125 625 460.7003173828125 616L462.7003173828125 489.599853515625Q462.7003173828125 487.04986572265625 457.4253234863281 486.599853515625Q452.15032958984375 486.14984130859375 451.25030517578125 489.14984130859375Q444.05010986328125 544.2999267578125 412.0999755859375 572.89990234375Q380.14984130859375 601.4998779296875 328.04962158203125 601.4998779296875H276.60009765625Q247.25030517578125 601.4998779296875 231.22537231445312 596.2748718261719Q215.200439453125 591.0498657226562 208.92544555664062 577.6748962402344Q202.65045166015625 564.2999267578125 202.65045166015625 540.2500610351562V85Q202.65045166015625 61.05010986328125 208.47543334960938 47.5001220703125Q214.3004150390625 33.95013427734375 228.97531127929688 28.5001220703125Q243.65020751953125 23.05010986328125 271.199951171875 23.05010986328125H336.64923095703125Q393.74969482421875 23.05010986328125 430.84991455078125 56.7000732421875Q467.95013427734375 90.35003662109375 481.7003173828125 151.85015869140625Q482.15032958984375 154.85015869140625 487.9253234863281 153.900146484375Q493.7003173828125 152.95013427734375 493.7003173828125 150.400146484375Q489.7003173828125 123.05010986328125 486.9753112792969 85.2000732421875Q484.25030517578125 47.35003662109375 484.25030517578125 15Q484.25030517578125 0 468.7003173828125 0ZM412.7003173828125 229.599853515625Q412.7003173828125 272.7998046875 388.3001708984375 293.2748718261719Q363.9000244140625 313.74993896484375 310.4998779296875 313.74993896484375H165.05010986328125V336.800048828125H312.599853515625Q364.45001220703125 336.800048828125 388.0751647949219 354.55010986328125Q411.7003173828125 372.3001708984375 411.7003173828125 408.95013427734375Q411.7003173828125 411.400146484375 417.4753112792969 411.400146484375Q423.25030517578125 411.400146484375 423.25030517578125 408.95013427734375Q423.25030517578125 378.15008544921875 422.75030517578125 361.0250549316406Q422.25030517578125 343.9000244140625 422.25030517578125 325Q422.25030517578125 301.64996337890625 423.4753112792969 279.0249328613281Q424.7003173828125 256.39990234375 424.7003173828125 229.599853515625Q424.7003173828125 227.599853515625 418.7003173828125 227.599853515625Q412.7003173828125 227.599853515625 412.7003173828125 229.599853515625Z" transform="translate(627.98 248.00) scale(0.06800 -0.06800)" fill="#F8F5EF"/></g><g transform="translate(178.64 0)"><path d="M130 350Q130 432 166.5 493.5Q203 555 262.0 590.0Q321 625 390 625Q440 625 481.5 612.0Q523 599 557.0 575.5Q591 552 615 521V633Q571 672 519.0 691.0Q467 710 390 710Q317 710 253.5 683.5Q190 657 142.0 608.5Q94 560 67.0 494.0Q40 428 40 350Q40 272 67.0 206.0Q94 140 142.0 91.5Q190 43 253.5 16.5Q317 -10 390 -10Q467 -10 519.0 9.0Q571 28 615 67V179Q591 148 557.0 124.5Q523 101 481.5 88.0Q440 75 390 75Q321 75 262.0 110.0Q203 145 166.5 207.0Q130 269 130 350Z" transform="translate(0.00 280.00) scale(0.01550 -0.01550)" fill="#F8F5EF"/><path d="M130 350Q130 429 164.5 491.0Q199 553 259.0 589.0Q319 625 395 625Q472 625 531.5 589.0Q591 553 625.5 491.0Q660 429 660 350Q660 271 625.5 209.0Q591 147 531.5 111.0Q472 75 395 75Q319 75 259.0 111.0Q199 147 164.5 209.0Q130 271 130 350ZM40 350Q40 274 66.5 208.0Q93 142 141.0 93.5Q189 45 254.0 17.5Q319 -10 395 -10Q472 -10 536.5 17.5Q601 45 649.0 93.5Q697 142 723.5 208.0Q750 274 750 350Q750 427 723.5 492.5Q697 558 649.0 606.5Q601 655 536.5 682.5Q472 710 395 710Q319 710 254.0 682.5Q189 655 141.0 606.5Q93 558 66.5 492.5Q40 427 40 350Z" transform="translate(15.89 280.00) scale(0.01550 -0.01550)" fill="#F8F5EF"/><path d="M610 700V179L80 735V0H165V521L695 -35V700Z" transform="translate(33.40 280.00) scale(0.01550 -0.01550)" fill="#F8F5EF"/><path d="M106 212 38 166Q61 120 97.5 79.5Q134 39 182.5 14.5Q231 -10 288 -10Q330 -10 368.5 4.0Q407 18 437.5 44.0Q468 70 485.5 107.0Q503 144 503 190Q503 238 486.0 272.5Q469 307 442.5 331.5Q416 356 385.0 372.0Q354 388 326 398Q265 419 229.5 440.5Q194 462 179.0 486.5Q164 511 164 540Q164 574 190.0 601.5Q216 629 273 629Q314 629 342.5 613.0Q371 597 391.0 572.0Q411 547 424 521L497 563Q480 600 450.0 633.5Q420 667 377.5 688.5Q335 710 278 710Q219 710 173.0 686.5Q127 663 101.0 622.0Q75 581 75 529Q75 481 93.5 448.0Q112 415 141.0 392.5Q170 370 202.0 355.5Q234 341 260 332Q300 318 335.5 300.5Q371 283 393.0 255.0Q415 227 415 180Q415 132 381.0 101.0Q347 70 291 70Q249 70 216.0 88.0Q183 106 156.5 138.0Q130 170 106 212Z" transform="translate(50.69 280.00) scale(0.01550 -0.01550)" fill="#F8F5EF"/><path d="M75 700V230Q75 178 91.5 134.0Q108 90 139.5 58.0Q171 26 215.0 8.0Q259 -10 313 -10Q367 -10 411.0 8.0Q455 26 486.5 58.0Q518 90 534.5 134.0Q551 178 551 230V700H466V230Q466 158 427.0 114.0Q388 70 313 70Q238 70 199.0 114.0Q160 158 160 230V700Z" transform="translate(64.45 280.00) scale(0.01550 -0.01550)" fill="#F8F5EF"/><path d="M80 700V0H440V80H165V700Z" transform="translate(79.42 280.00) scale(0.01550 -0.01550)" fill="#F8F5EF"/><path d="M10 620H190V0H275V620H455V700H10Z" transform="translate(91.67 280.00) scale(0.01550 -0.01550)" fill="#F8F5EF"/><path d="M130 350Q130 429 164.5 491.0Q199 553 259.0 589.0Q319 625 395 625Q472 625 531.5 589.0Q591 553 625.5 491.0Q660 429 660 350Q660 271 625.5 209.0Q591 147 531.5 111.0Q472 75 395 75Q319 75 259.0 111.0Q199 147 164.5 209.0Q130 271 130 350ZM40 350Q40 274 66.5 208.0Q93 142 141.0 93.5Q189 45 254.0 17.5Q319 -10 395 -10Q472 -10 536.5 17.5Q601 45 649.0 93.5Q697 142 723.5 208.0Q750 274 750 350Q750 427 723.5 492.5Q697 558 649.0 606.5Q601 655 536.5 682.5Q472 710 395 710Q319 710 254.0 682.5Q189 655 141.0 606.5Q93 558 66.5 492.5Q40 427 40 350Z" transform="translate(104.14 280.00) scale(0.01550 -0.01550)" fill="#F8F5EF"/><path d="M205 345 445 0H550L300 345ZM80 700V0H165V700ZM127 625H270Q315 625 349.5 609.0Q384 593 403.5 563.0Q423 533 423 490Q423 447 403.5 417.0Q384 387 349.5 371.0Q315 355 270 355H127V280H270Q338 280 391.5 305.5Q445 331 476.5 378.5Q508 426 508 490Q508 555 476.5 602.0Q445 649 391.5 674.5Q338 700 270 700H127Z" transform="translate(121.66 280.00) scale(0.01550 -0.01550)" fill="#F8F5EF"/><path d="M80 700V0H165V700Z" transform="translate(135.61 280.00) scale(0.01550 -0.01550)" fill="#F8F5EF"/><path d="M147 210H517L487 290H177ZM330 542 450 260 458 240 560 0H655L330 735L5 0H100L204 246L212 264Z" transform="translate(144.68 280.00) scale(0.01550 -0.01550)" fill="#F8F5EF"/><path d="M80 700V0H165V700Z" transform="translate(170.10 280.00) scale(0.01550 -0.01550)" fill="#F8F5EF"/><path d="M177 473 405 65 633 473 685 0H770L685 735L405 228L125 735L40 0H125Z" transform="translate(179.16 280.00) scale(0.01550 -0.01550)" fill="#F8F5EF"/><path d="M130 350Q130 429 164.5 491.0Q199 553 259.0 589.0Q319 625 395 625Q472 625 531.5 589.0Q591 553 625.5 491.0Q660 429 660 350Q660 271 625.5 209.0Q591 147 531.5 111.0Q472 75 395 75Q319 75 259.0 111.0Q199 147 164.5 209.0Q130 271 130 350ZM40 350Q40 274 66.5 208.0Q93 142 141.0 93.5Q189 45 254.0 17.5Q319 -10 395 -10Q472 -10 536.5 17.5Q601 45 649.0 93.5Q697 142 723.5 208.0Q750 274 750 350Q750 427 723.5 492.5Q697 558 649.0 606.5Q601 655 536.5 682.5Q472 710 395 710Q319 710 254.0 682.5Q189 655 141.0 606.5Q93 558 66.5 492.5Q40 427 40 350Z" transform="translate(196.99 280.00) scale(0.01550 -0.01550)" fill="#F8F5EF"/><path d="M147 370H260Q323 370 369.5 388.0Q416 406 442.0 441.0Q468 476 468 525Q468 585 442.0 623.5Q416 662 369.5 681.0Q323 700 260 700H80V0H270Q338 0 391.5 22.5Q445 45 476.5 90.5Q508 136 508 205Q508 253 490.0 288.0Q472 323 439.5 345.5Q407 368 364.0 379.0Q321 390 270 390H147V343H270Q304 343 332.0 334.5Q360 326 380.5 309.0Q401 292 412.0 267.0Q423 242 423 210Q423 167 403.5 137.0Q384 107 349.5 91.0Q315 75 270 75H165V625H260Q313 625 348.0 597.5Q383 570 383 520Q383 487 367.0 464.0Q351 441 323.0 429.0Q295 417 260 417H147Z" transform="translate(214.50 280.00) scale(0.01550 -0.01550)" fill="#F8F5EF"/><path d="M80 700V0H165V700Z" transform="translate(228.42 280.00) scale(0.01550 -0.01550)" fill="#F8F5EF"/><path d="M80 700V0H440V80H165V700Z" transform="translate(237.49 280.00) scale(0.01550 -0.01550)" fill="#F8F5EF"/><path d="M80 700V0H165V700Z" transform="translate(249.74 280.00) scale(0.01550 -0.01550)" fill="#F8F5EF"/><path d="M147 210H517L487 290H177ZM330 542 450 260 458 240 560 0H655L330 735L5 0H100L204 246L212 264ZM460 945 385 985 235 825 280 795Z" transform="translate(258.80 280.00) scale(0.01550 -0.01550)" fill="#F8F5EF"/><path d="M205 345 445 0H550L300 345ZM80 700V0H165V700ZM127 625H270Q315 625 349.5 609.0Q384 593 403.5 563.0Q423 533 423 490Q423 447 403.5 417.0Q384 387 349.5 371.0Q315 355 270 355H127V280H270Q338 280 391.5 305.5Q445 331 476.5 378.5Q508 426 508 490Q508 555 476.5 602.0Q445 649 391.5 674.5Q338 700 270 700H127Z" transform="translate(274.30 280.00) scale(0.01550 -0.01550)" fill="#F8F5EF"/><path d="M80 700V0H165V700Z" transform="translate(288.25 280.00) scale(0.01550 -0.01550)" fill="#F8F5EF"/><path d="M147 210H517L487 290H177ZM330 542 450 260 458 240 560 0H655L330 735L5 0H100L204 246L212 264Z" transform="translate(297.32 280.00) scale(0.01550 -0.01550)" fill="#F8F5EF"/></g></svg>